<svg width="640" height="569" viewBox="0 0 640 569" fill="none" xmlns="http://www.w3.org/2000/svg">
<path fill-rule="evenodd" clip-rule="evenodd" d="M639.628 83.8986L631.219 97.8332C622.81 111.768 605.991 139.637 600.972 188.481C595.953 237.325 602.733 307.144 605.579 369.971C608.426 432.798 607.34 488.634 578.722 495.528C550.105 502.423 493.955 460.377 449.605 439.305C405.255 418.234 372.705 418.137 344.087 425.032C315.469 431.926 290.785 445.813 246.435 424.741C202.085 403.67 138.069 347.64 129.117 389.493C120.165 431.345 166.275 571.079 189.33 640.946L212.386 710.814L2.32851e-05 333.27L12.3424 326.327C24.6847 319.384 49.3693 305.498 74.054 291.611C98.7386 277.725 123.423 263.839 148.108 249.953C172.793 236.066 197.477 222.18 222.162 208.294C246.846 194.408 271.531 180.521 296.216 166.635C320.9 152.749 345.585 138.863 370.27 124.976C394.954 111.09 419.639 97.2038 444.324 83.3175C469.008 69.4313 493.693 55.545 518.378 41.6588C543.062 27.7725 567.747 13.8863 580.089 6.94313L592.432 8.66086e-06L639.628 83.8986Z" fill="url(#paint0_radial_22_10500)"/>
<defs>
<radialGradient id="paint0_radial_22_10500" cx="0" cy="0" r="1" gradientUnits="userSpaceOnUse" gradientTransform="translate(402.409 355.407) rotate(-119.36) scale(216.591 339.869)">
<stop stop-color="#587498"/>
<stop offset="1" stop-color="#587498" stop-opacity="0"/>
</radialGradient>
</defs>
</svg>
