<svg width="927" height="971" viewBox="0 0 927 971" fill="none" xmlns="http://www.w3.org/2000/svg">
<path fill-rule="evenodd" clip-rule="evenodd" d="M845.76 914.041L788.114 927.542C730.152 940.309 614.858 967.31 552.799 970.55C490.74 973.789 482.545 954.733 420.486 957.973C358.427 961.212 243.133 988.213 274.785 951.153C306.437 914.093 485.665 814.438 503.93 783.136C522.195 751.833 380.127 790.348 291.293 805.101C202.459 819.855 167.489 812.313 145.592 798.282C123.695 784.25 115.5 765.194 93.6028 751.163C71.7056 737.131 36.7362 729.589 14.8389 715.558C-7.05832 701.526 -15.2531 682.47 69.9483 622.382C155.15 562.294 334.378 462.639 406.192 408.308C478.006 353.977 443.036 346.435 447.914 320.889C452.791 295.343 498.146 253.259 409.312 268.013C320.478 282.767 98.0859 355.824 89.576 336.035C81.0661 316.247 287.069 205.078 358.883 150.746C430.697 96.4152 368.953 100.388 337.766 101.641L306.893 103.627L547.865 -2.88079e-05L551.963 9.52783C556.375 19.7886 564.57 38.8445 573.08 58.6332C581.59 78.4219 589.785 97.4777 598.295 117.266C606.805 137.055 614.999 156.111 623.509 175.9C632.019 195.688 640.214 214.744 648.724 234.533C657.234 254.322 665.428 273.378 673.938 293.166C682.448 312.955 690.643 332.011 699.153 351.799C707.663 371.588 715.858 390.644 724.368 410.433C732.878 430.221 741.072 449.277 749.582 469.066C758.092 488.855 766.287 507.911 774.797 527.699C783.307 547.488 791.501 566.544 800.011 586.333C808.521 606.121 816.716 625.177 825.226 644.966C833.736 664.755 841.931 683.81 850.441 703.599C858.95 723.388 867.145 742.444 875.655 762.232C884.165 782.021 892.36 801.077 900.87 820.866C909.38 840.654 917.574 859.71 921.987 869.971L926.084 879.499L845.76 914.041Z" fill="url(#paint0_radial_22_10494)"/>
<defs>
<radialGradient id="paint0_radial_22_10494" cx="0" cy="0" r="1" gradientUnits="userSpaceOnUse" gradientTransform="translate(379.042 593.674) rotate(-23.2696) scale(389.626 478.688)">
<stop stop-color="#FFD800"/>
<stop offset="1" stop-color="#FFF5BF" stop-opacity="0"/>
</radialGradient>
</defs>
</svg>
