<svg width="901" height="877" viewBox="0 0 901 877" fill="none" xmlns="http://www.w3.org/2000/svg">
<path fill-rule="evenodd" clip-rule="evenodd" d="M-4.32032e-05 181.641L16.2293 184.644C32.8575 188.315 67.8442 193.719 166.701 161.002C267.287 126.347 434.272 52.9681 533.128 20.2515C634.114 -13.7358 666.971 -7.06136 657.249 25.0268C647.527 57.1149 590.567 116.49 559.555 161.285C526.414 207.35 514.563 240.709 515.485 266.444C516.408 292.178 527.976 311.56 583.853 303.588C640.13 296.285 738.986 263.569 773.973 268.973C806.83 275.647 773.689 321.713 774.612 347.447C775.136 372.514 807.993 379.188 842.98 384.592C875.837 391.267 908.695 397.941 898.973 430.029C889.25 462.117 832.291 521.492 801.279 566.287C768.138 612.353 756.286 645.711 751.226 661.421L746.564 677.8L414.441 876.026L408.457 866.001C402.873 856.645 391.305 837.263 379.738 817.882C368.17 798.501 357.001 779.788 345.434 760.406C333.866 741.025 322.298 721.644 310.731 702.263C299.163 682.881 287.595 663.5 276.427 644.787C264.859 625.406 253.291 606.024 241.724 586.643C230.156 567.262 218.588 547.88 207.021 528.499C195.852 509.786 184.284 490.405 172.717 471.023C161.149 451.642 149.582 432.261 138.014 412.88C126.446 393.498 115.277 374.785 103.71 355.404C92.1422 336.023 80.5746 316.641 69.0069 297.26C57.4393 277.879 45.8716 258.497 34.7029 239.784C23.1352 220.403 11.5676 201.022 5.58433 190.997L-4.32032e-05 181.641Z" fill="url(#paint0_radial_22_10501)"/>
<defs>
<radialGradient id="paint0_radial_22_10501" cx="0" cy="0" r="1" gradientUnits="userSpaceOnUse" gradientTransform="translate(488.399 361.013) rotate(149.169) scale(327.453 404.33)">
<stop stop-color="#587498"/>
<stop offset="1" stop-color="#587498" stop-opacity="0"/>
</radialGradient>
</defs>
</svg>
